<svg width="191" height="29" viewBox="0 0 191 29" fill="none" xmlns="http://www.w3.org/2000/svg">
<path d="M15.516 3.096V7.164H5.03999V13.608H13.068V17.604H5.03999V28.224H-8.58307e-06V3.096H15.516ZM21.6458 5.904C20.7578 5.904 20.0138 5.628 19.4138 5.076C18.8378 4.5 18.5498 3.792 18.5498 2.952C18.5498 2.112 18.8378 1.416 19.4138 0.863997C20.0138 0.287997 20.7578 -2.38419e-06 21.6458 -2.38419e-06C22.5338 -2.38419e-06 23.2658 0.287997 23.8418 0.863997C24.4418 1.416 24.7418 2.112 24.7418 2.952C24.7418 3.792 24.4418 4.5 23.8418 5.076C23.2658 5.628 22.5338 5.904 21.6458 5.904ZM24.1298 8.28V28.224H19.0898V8.28H24.1298ZM40.1614 7.992C42.5374 7.992 44.4574 8.748 45.9214 10.26C47.3854 11.748 48.1174 13.836 48.1174 16.524V28.224H43.0774V17.208C43.0774 15.624 42.6814 14.412 41.8894 13.572C41.0974 12.708 40.0174 12.276 38.6494 12.276C37.2574 12.276 36.1534 12.708 35.3374 13.572C34.5454 14.412 34.1494 15.624 34.1494 17.208V28.224H29.1094V8.28H34.1494V10.764C34.8214 9.9 35.6734 9.228 36.7054 8.748C37.7614 8.244 38.9134 7.992 40.1614 7.992ZM71.4501 17.82C71.4501 18.54 71.4021 19.188 71.3061 19.764H56.7261C56.8461 21.204 57.3501 22.332 58.2381 23.148C59.1261 23.964 60.2181 24.372 61.5141 24.372C63.3861 24.372 64.7181 23.568 65.5101 21.96H70.9461C70.3701 23.88 69.2661 25.464 67.6341 26.712C66.0021 27.936 63.9981 28.548 61.6221 28.548C59.7021 28.548 57.9741 28.128 56.4381 27.288C54.9261 26.424 53.7381 25.212 52.8741 23.652C52.0341 22.092 51.6141 20.292 51.6141 18.252C51.6141 16.188 52.0341 14.376 52.8741 12.816C53.7141 11.256 54.8901 10.056 56.4021 9.216C57.9141 8.376 59.6541 7.956 61.6221 7.956C63.5181 7.956 65.2101 8.364 66.6981 9.18C68.2101 9.996 69.3741 11.16 70.1901 12.672C71.0301 14.16 71.4501 15.876 71.4501 17.82ZM66.2301 16.38C66.2061 15.084 65.7381 14.052 64.8261 13.284C63.9141 12.492 62.7981 12.096 61.4781 12.096C60.2301 12.096 59.1741 12.48 58.3101 13.248C57.4701 13.992 56.9541 15.036 56.7621 16.38H66.2301ZM82.7609 28.548C81.1289 28.548 79.6649 28.26 78.3689 27.684C77.0729 27.084 76.0409 26.28 75.2729 25.272C74.5289 24.264 74.1209 23.148 74.0489 21.924H79.1249C79.2209 22.692 79.5929 23.328 80.2409 23.832C80.9129 24.336 81.7409 24.588 82.7249 24.588C83.6849 24.588 84.4289 24.396 84.9569 24.012C85.5089 23.628 85.7849 23.136 85.7849 22.536C85.7849 21.888 85.4489 21.408 84.7769 21.096C84.1289 20.76 83.0849 20.4 81.6449 20.016C80.1569 19.656 78.9329 19.284 77.9729 18.9C77.0369 18.516 76.2209 17.928 75.5249 17.136C74.8529 16.344 74.5169 15.276 74.5169 13.932C74.5169 12.828 74.8289 11.82 75.4529 10.908C76.1009 9.996 77.0129 9.276 78.1889 8.748C79.3889 8.22 80.7929 7.956 82.4009 7.956C84.7769 7.956 86.6729 8.556 88.0889 9.756C89.5049 10.932 90.2849 12.528 90.4289 14.544H85.6049C85.5329 13.752 85.1969 13.128 84.5969 12.672C84.0209 12.192 83.2409 11.952 82.2569 11.952C81.3449 11.952 80.6369 12.12 80.1329 12.456C79.6529 12.792 79.4129 13.26 79.4129 13.86C79.4129 14.532 79.7489 15.048 80.4209 15.408C81.0929 15.744 82.1369 16.092 83.5529 16.452C84.9929 16.812 86.1809 17.184 87.1169 17.568C88.0529 17.952 88.8569 18.552 89.5289 19.368C90.2249 20.16 90.5849 21.216 90.6089 22.536C90.6089 23.688 90.2849 24.72 89.6369 25.632C89.0129 26.544 88.1009 27.264 86.9009 27.792C85.7249 28.296 84.3449 28.548 82.7609 28.548ZM100.614 12.42V22.068C100.614 22.74 100.77 23.232 101.082 23.544C101.418 23.832 101.97 23.976 102.738 23.976H105.078V28.224H101.91C97.6621 28.224 95.5381 26.16 95.5381 22.032V12.42H93.1621V8.28H95.5381V3.348H100.614V8.28H105.078V12.42H100.614Z" fill="#F38160"/>
<path d="M136.099 3.096V28.224H131.059V11.88L124.327 28.224H120.511L113.743 11.88V28.224H108.703V3.096H114.427L122.419 21.78L130.411 3.096H136.099ZM139.786 18.18C139.786 16.164 140.182 14.376 140.974 12.816C141.79 11.256 142.882 10.056 144.25 9.216C145.642 8.376 147.19 7.956 148.894 7.956C150.382 7.956 151.678 8.256 152.782 8.856C153.91 9.456 154.81 10.212 155.482 11.124V8.28H160.558V28.224H155.482V25.308C154.834 26.244 153.934 27.024 152.782 27.648C151.654 28.248 150.346 28.548 148.858 28.548C147.178 28.548 145.642 28.116 144.25 27.252C142.882 26.388 141.79 25.176 140.974 23.616C140.182 22.032 139.786 20.22 139.786 18.18ZM155.482 18.252C155.482 17.028 155.242 15.984 154.762 15.12C154.282 14.232 153.634 13.56 152.818 13.104C152.002 12.624 151.126 12.384 150.19 12.384C149.254 12.384 148.39 12.612 147.598 13.068C146.806 13.524 146.158 14.196 145.654 15.084C145.174 15.948 144.934 16.98 144.934 18.18C144.934 19.38 145.174 20.436 145.654 21.348C146.158 22.236 146.806 22.92 147.598 23.4C148.414 23.88 149.278 24.12 150.19 24.12C151.126 24.12 152.002 23.892 152.818 23.436C153.634 22.956 154.282 22.284 154.762 21.42C155.242 20.532 155.482 19.476 155.482 18.252ZM170.52 11.376C171.168 10.32 172.008 9.492 173.04 8.892C174.096 8.292 175.296 7.992 176.64 7.992V13.284H175.308C173.724 13.284 172.524 13.656 171.708 14.4C170.916 15.144 170.52 16.44 170.52 18.288V28.224H165.48V8.28H170.52V11.376ZM185.903 12.42V22.068C185.903 22.74 186.059 23.232 186.371 23.544C186.707 23.832 187.259 23.976 188.027 23.976H190.367V28.224H187.199C182.951 28.224 180.827 26.16 180.827 22.032V12.42H178.451V8.28H180.827V3.348H185.903V8.28H190.367V12.42H185.903Z" fill="#F0B70D"/>
</svg>
